<?xml version="1.0" standalone="no"?>
<!DOCTYPE svg PUBLIC "-//W3C//DTD SVG 20010904//EN"
 "http://www.w3.org/TR/2001/REC-SVG-20010904/DTD/svg10.dtd">
<svg version="1.0" xmlns="http://www.w3.org/2000/svg"
 width="1707.000000pt" height="1707.000000pt" viewBox="0 0 1707.000000 1707.000000"
 preserveAspectRatio="xMidYMid meet">
<metadata>
Created by potrace 1.14, written by Peter Selinger 2001-2017
</metadata>
<g transform="translate(0.000000,1707.000000) scale(0.100000,-0.100000)"
fill="#000000" stroke="none">
<path d="M8435 16964 c-403 -22 -774 -120 -1135 -300 -540 -270 -984 -713
-1254 -1252 -132 -263 -207 -494 -264 -812 l-26 -145 -3 -1552 -4 -1552 -1532
-4 -1532 -3 -140 -23 c-535 -86 -990 -287 -1390 -616 -107 -88 -303 -282 -382
-380 -334 -409 -535 -864 -620 -1405 -26 -164 -26 -616 0 -780 102 -649 384
-1198 842 -1638 387 -373 882 -633 1393 -732 281 -55 211 -53 1844 -57 l1517
-4 4 -1562 3 -1562 26 -135 c96 -498 272 -896 568 -1280 96 -125 359 -386 485
-481 392 -298 782 -468 1270 -556 174 -31 549 -43 741 -23 1346 136 2409 1217
2524 2565 6 74 10 674 10 1577 l0 1457 1518 4 c1638 4 1560 1 1842 57 821 162
1551 712 1940 1463 139 268 224 521 276 822 156 902 -136 1817 -785 2466 -435
435 -955 697 -1591 801 -134 22 -143 22 -1667 25 l-1532 4 -4 1532 c-3 1527
-3 1532 -25 1667 -53 321 -131 570 -267 845 -158 321 -368 601 -625 833 -444
402 -990 652 -1567 717 -142 16 -351 24 -458 19z"/>
</g>
</svg>
